<svg width="1813" height="310" viewBox="0 0 1813 310" fill="none" xmlns="http://www.w3.org/2000/svg">
<path d="M159.432 243.88H0V0H25.844V220.22H159.432V243.88Z" fill="white"/>
<path d="M231.08 247.52C198.32 247.52 173.568 230.776 173.568 200.564C173.568 169.26 196.864 155.428 236.176 149.968L299.512 141.232V128.128C299.512 96.46 286.044 83.72 252.192 83.72C219.432 83.72 204.144 96.46 204.144 125.216V130.676H179.028V127.764C179.028 90.272 207.784 60.424 254.376 60.424C302.424 60.424 324.264 91.364 324.264 131.404V243.88H300.604V210.756L298.784 210.392C288.228 231.14 265.296 247.52 231.08 247.52ZM199.048 198.744C199.048 217.308 210.696 225.68 238.36 225.68C269.3 225.68 299.512 209.664 299.512 167.076V160.888L238.36 169.624C209.604 173.628 199.048 179.452 199.048 198.744Z" fill="white"/>
<path d="M434.201 227.864C384.697 227.864 356.305 195.104 356.305 144.144C356.305 93.184 384.333 60.424 434.565 60.424C466.233 60.424 490.257 76.076 498.265 99.008H499.721V64.064H523.017V236.236C523.017 285.012 491.713 309.4 444.393 309.4C398.529 309.4 366.133 285.376 366.133 243.88H391.977C391.977 273.364 406.901 286.104 444.757 286.104C483.341 286.104 496.809 272.272 496.809 236.236V190.372H496.445C488.073 211.12 465.505 227.864 434.201 227.864ZM382.513 144.144C382.513 191.828 405.445 205.296 440.389 205.296C472.785 205.296 496.809 186.732 496.809 149.604V138.684C496.809 101.556 472.421 82.992 438.933 82.992C404.717 82.992 382.513 96.824 382.513 144.144Z" fill="white"/>
<path d="M642.016 247.52C589.236 247.52 554.656 208.572 554.656 153.972C554.656 99.372 589.236 60.424 642.016 60.424C694.432 60.424 727.92 99.372 727.92 153.972C727.92 208.572 694.432 247.52 642.016 247.52ZM642.016 224.224C685.332 224.224 702.44 198.744 702.44 153.972C702.44 109.2 685.332 84.084 642.016 84.084C597.972 84.084 580.5 109.2 580.5 153.972C580.5 198.744 597.972 224.224 642.016 224.224Z" fill="white"/>
<path d="M785.785 243.88H759.577V64.064H783.237V101.192H784.329C791.245 82.264 810.173 60.424 847.301 60.424C880.061 60.424 899.717 76.076 907.725 101.556H908.817C916.097 82.264 934.661 60.424 971.789 60.424C1018.02 60.424 1039.13 90.272 1039.13 133.224V243.88H1013.29V139.412C1013.29 100.464 1000.18 83.356 963.781 83.356C929.565 83.356 912.457 100.1 912.457 140.14V243.88H886.613V139.412C886.613 100.464 873.873 83.356 837.473 83.356C803.257 83.356 785.785 100.1 785.785 140.14V243.88Z" fill="white"/>
<path d="M1134.39 206.88H1128.37L1164.08 121.12H1171.89L1207.6 206.88H1201.46L1189.94 179.616H1145.78L1134.39 206.88ZM1163.19 137.888L1147.96 174.368H1187.76L1172.4 137.888L1168.05 127.008H1167.54L1163.19 137.888Z" fill="white"/>
<path d="M1221.03 206.88H1215.27V121.12H1248.81C1265.7 121.12 1277.86 130.208 1277.86 145.696C1277.86 160.416 1266.47 169.504 1250.85 169.504V170.016C1255.72 171.424 1259.17 174.88 1262.12 179.744L1277.99 206.88H1271.46L1256.36 181.408C1252.01 173.984 1247.01 170.528 1235.24 170.528H1221.03V206.88ZM1221.03 126.368V165.536H1249.32C1264.17 165.536 1272.1 159.136 1272.1 145.952C1272.1 132.64 1264.17 126.368 1249.32 126.368H1221.03Z" fill="white"/>
<path d="M1294.9 206.88H1289.14V121.12H1294.9V161.44H1321.27L1347.13 121.12H1353.78L1326.39 163.616L1354.04 206.88H1347.38L1321.53 166.688H1294.9V206.88Z" fill="white"/>
<path d="M1367.03 206.88H1361.27V121.12H1367.03V206.88Z" fill="white"/>
<path d="M1411.61 206.88H1405.98V126.368H1374.49V121.12H1442.97V126.368H1411.61V206.88Z" fill="white"/>
<path d="M1505.56 206.88H1450.52V121.12H1505.56V126.368H1456.28V161.184H1503.64V166.304H1456.28V201.632H1505.56V206.88Z" fill="white"/>
<path d="M1523.4 206.88H1517.64V121.12H1523.4V161.44H1549.77L1575.63 121.12H1582.28L1554.89 163.616L1582.54 206.88H1575.88L1550.03 166.688H1523.4V206.88Z" fill="white"/>
<path d="M1623.86 206.88H1618.23V126.368H1586.74V121.12H1655.22V126.368H1623.86V206.88Z" fill="white"/>
<path d="M1697.46 208.16C1676.85 208.16 1662.77 195.744 1662.77 173.088V121.12H1668.4V173.088C1668.4 193.312 1678.26 202.528 1697.46 202.528C1716.79 202.528 1726.51 193.312 1726.51 173.088V121.12H1732.15V173.088C1732.15 195.744 1718.19 208.16 1697.46 208.16Z" fill="white"/>
<path d="M1755.53 206.88H1749.77V121.12H1783.31C1800.2 121.12 1812.36 130.208 1812.36 145.696C1812.36 160.416 1800.97 169.504 1785.35 169.504V170.016C1790.22 171.424 1793.67 174.88 1796.62 179.744L1812.49 206.88H1805.96L1790.86 181.408C1786.51 173.984 1781.51 170.528 1769.74 170.528H1755.53V206.88ZM1755.53 126.368V165.536H1783.82C1798.67 165.536 1806.6 159.136 1806.6 145.952C1806.6 132.64 1798.67 126.368 1783.82 126.368H1755.53Z" fill="white"/>
</svg>
